<svg xmlns="http://www.w3.org/2000/svg" viewBox="0 0 501 104"><path fill="#fff" d="m136.36 38.71-3.49 7.08a.37.37 0 0 1-.33.21h-12.32a.37.37 0 0 1-.33-.55L143.94.94a.37.37 0 0 1 .32-.19h13.91a.37.37 0 0 1 .37.3l8.39 44.51a.37.37 0 0 1-.37.44h-12.52a.37.37 0 0 1-.36-.32l-.98-6.86a.37.37 0 0 0-.36-.32h-15.65a.37.37 0 0 0-.33.21Zm12.58-23.14a.36.36 0 0 0-.68-.11l-6.5 13.02a.36.36 0 0 0 .32.52h8.52a.36.36 0 0 0 .36-.42l-2.02-13.01Zm43.13 19.33c.47-.74 1.15-1.37 2.11-1.38q5.9-.04 11.78-.01a.5.5 0 0 1 .44.74q-6.23 12.01-20.06 12.18c-12.78.15-16.93-11.73-13.17-22.25q4.35-12.14 17.01-14.25c12.72-2.11 22.12 7.24 17.59 20.05q-.18.52-.73.52h-22.46a.57.56-5.4 0 0-.56.67l.6 3.26q.11.56.58.87 2.95 1.91 6.12.28.47-.23.75-.68Zm-6.28-9.74 10.65-.34a.11.11 0 0 0 .11-.11v-.06a5.36 5.19-1.8 0 0-5.52-5.02h-.16a5.36 5.19-1.8 0 0-5.2 5.36v.06a.11.11 0 0 0 .12.11Zm78.97 19.62c-9.28 3.57-22.78 1.56-24.51-10.43-1.76-12.15 6.77-23.21 18.87-24.53 24.9-2.7 23.9 27.93 5.64 34.96Zm-8.983-9.473a7.93 5.85 114.3 0 0 8.595-4.82 7.93 5.85 114.3 0 0-2.069-9.634 7.93 5.85 114.3 0 0-8.595 4.82 7.93 5.85 114.3 0 0 2.069 9.634ZM238.2 23.23c-5.01 0-11.01.06-12.19 6.31q-1.49 7.85-2.91 15.91-.09.55-.65.55h-11.38q-.68 0-.56-.67l6.21-34.75q.11-.58.7-.58h11.19q.9 0 .72.88l-1 4.91a.47.47 0 0 0 .84.36q3.98-5.61 10.92-6.13a.67.67 0 0 1 .71.78l-2.03 11.95q-.08.48-.57.48ZM0 20.65v-2.17c3.61-10.23 16.98-7.71 24.24-4.22q13.04 6.26 26.02 12.64c1.64.81 2.63.44 3.98-.57a.42.42 0 0 0-.05-.7l-3.23-1.78q-.57-.32.03-.58 11.63-5.06 23.21-10.11c3.2-1.4 5.8 1.82 3.76 4.55q-6.04 8.09-12.14 16.16a.48.48 0 0 0 .17.72c4.96 2.43 14.79 8.76 20.23 7.16q6.7-1.96 13.45-3.76a1.59 1.57 47.2 0 1 .95.04q4.92 1.75 2.61 6.71-2.8 6.01-5.62 12.02c-6.92 14.79-28.79.94-37.96-3.36q-.48-.23-.58.29-3.3 17.77-6.73 35.45c-.95 4.89-6.65 4.91-7.66.37Q39.4 65.85 33.94 41.55a2.2 2.17-83.4 0 0-1.16-1.48c-8.22-4.02-16.22-8.21-24.32-11.96Q2.7 25.43 0 20.65Zm254.94 82.34-11.57.01a.55.55 0 0 1-.55-.65l8.25-46.4a.55.55 0 0 1 .54-.45h11.59a.55.55 0 0 1 .54.65l-8.26 46.39a.55.55 0 0 1-.54.45Zm25.77-31.8a.37.37 0 0 0 .65.31q4.73-5.49 12.42-4.74c19.34 1.9 10.61 40.54-11.33 36.3q-3.96-.76-5.89-4.33-.46-.86-.68.09l-.85 3.7q-.11.48-.6.48h-10.66a1.06 1.06 0 0 1-1.04-1.24l8.09-45.69a.69.69 0 0 1 .68-.57h11.25q.79 0 .65.78l-2.69 14.91Zm.04 20.533a7.84 6.12 121.1 0 0 9.29-3.552 7.84 6.12 121.1 0 0-1.19-9.874 7.84 6.12 121.1 0 0-9.29 3.552 7.84 6.12 121.1 0 0 1.19 9.874Zm142.47 11.317c-33.73 2.74-23.61-47.01 6.69-45.6 10.05.47 16.95 5.74 17.8 16.05a.47.46-2.8 0 1-.47.51h-12.51q-.58 0-.82-.52-2.04-4.35-6.4-4.46c-11.9-.29-17.44 20.07-6.8 22.23q6.82 1.38 11.09-4.39.26-.36.71-.36h12.5a.44.44 0 0 1 .39.63q-7.05 14.68-22.18 15.91Zm53.62-8.77-1.4 8.18a.66.66 0 0 1-.65.55H449.4a.66.66 0 0 1-.65-.78l7.78-43.93a.66.66 0 0 1 .65-.54h11.24a.66.66 0 0 1 .65.77l-5.95 34.22a.66.66 0 0 0 .66.77l12.41-.01a.66.66 0 0 1 .65.77Zm11.55-36.51 11.84-.01a.31.31 0 0 1 .31.36l-7.79 44.63a.31.31 0 0 1-.3.26h-12.08a.31.31 0 0 1-.3-.36l8.01-44.63a.31.31 0 0 1 .31-.25ZM137.5 68h-10.65a.52.52 0 0 1-.52-.61l1.52-8.96a.52.52 0 0 1 .51-.43h35.45a.52.52 0 0 1 .51.61l-1.49 8.96a.52.52 0 0 1-.51.43h-11.1a.52.52 0 0 0-.52.43l-6.07 34.14a.52.52 0 0 1-.52.43h-11.58a.52.52 0 0 1-.51-.61l5.99-33.78a.52.52 0 0 0-.51-.61Zm58.34 2.81c8.8 8.43 3.74 23.21-5.04 28.96-7.75 5.07-22.24 5.66-27.07-4.03-4.68-9.38.47-21.19 9.14-26.09 6.58-3.73 16.98-4.57 22.97 1.16Zm-17.78 21.513a7.9 5.83 113.9 0 0 8.53-4.861 7.9 5.83 113.9 0 0-2.13-9.585 7.9 5.83 113.9 0 0-8.53 4.861 7.9 5.83 113.9 0 0 2.13 9.585ZM218.4 67.62c15.24-4.5 27.41 6.7 21.11 22.42-7.26 18.12-39.99 19.2-36.29-5.24 1.27-8.38 7.07-14.79 15.18-17.18Zm.39 24.694a7.94 5.88 114 0 0 8.602-4.862 7.94 5.88 114 0 0-2.142-9.646 7.94 5.88 114 0 0-8.602 4.862 7.94 5.88 114 0 0 2.143 9.646Z"/><path fill="#fff" d="M306.94 88.51c-.34-11.32 8.49-20.36 19.5-21.65 21.01-2.47 24.17 21.43 10.48 32.02-10.38 8.03-29.49 6.1-29.98-10.37Zm16.023 3.773a7.93 5.87 113.3 0 0 8.528-4.961 7.93 5.87 113.3 0 0-2.254-9.605 7.93 5.87 113.3 0 0-8.528 4.961 7.93 5.87 113.3 0 0 2.254 9.605Z"/><path fill="#fff" d="m364.04 94.48-6.21 8.33a.47.47 0 0 1-.38.19H345a.47.47 0 0 1-.36-.77l14.31-17.53a.47.47 0 0 0 .05-.52l-8.88-16.49a.47.47 0 0 1 .42-.69h12.94a.47.47 0 0 1 .41.24l4.65 8.15a.47.47 0 0 0 .78.05l6.2-8.25a.47.47 0 0 1 .37-.19h12.5a.47.47 0 0 1 .36.77l-14.73 17.36a.47.47 0 0 0-.06.53l9.07 16.65a.47.47 0 0 1-.41.69h-13.01a.47.47 0 0 1-.41-.25l-4.37-8.21a.47.47 0 0 0-.79-.06Z"/></svg>
